<mxfile modified="2020-11-15T18:10:56.395Z" host="app.diagrams.net" agent="5.0 (Windows NT 10.0; Win64; x64) AppleWebKit/537.36 (KHTML, like Gecko) Chrome/86.0.4240.193 Safari/537.36" etag="ZVc-YIEU0-M8SvumQUrC" version="13.9.8" type="github" pages="5">
  <diagram id="NrtdrvfLPn9VegWJ8b1I" name="Page-2">
    <mxGraphModel dx="1449" dy="675" grid="1" gridSize="10" guides="1" tooltips="1" connect="1" arrows="1" fold="1" page="1" pageScale="1" pageWidth="1169" pageHeight="827" math="0" shadow="0">
      <root>
        <mxCell id="FrYXlf5MJ7aJV5YNrlwK-0" />
        <mxCell id="FrYXlf5MJ7aJV5YNrlwK-1" parent="FrYXlf5MJ7aJV5YNrlwK-0" />
        <mxCell id="FrYXlf5MJ7aJV5YNrlwK-2" value="Architecting on AWS" style="text;html=1;resizable=0;points=[];autosize=1;align=left;verticalAlign=top;spacingTop=-4;fontSize=30;fontStyle=1" vertex="1" parent="FrYXlf5MJ7aJV5YNrlwK-1">
          <mxGeometry x="56.5" y="64.5" width="310" height="40" as="geometry" />
        </mxCell>
        <mxCell id="FrYXlf5MJ7aJV5YNrlwK-3" value="Discovery Health - Day 1" style="text;html=1;resizable=0;points=[];autosize=1;align=left;verticalAlign=top;spacingTop=-4;fontSize=16;" vertex="1" parent="FrYXlf5MJ7aJV5YNrlwK-1">
          <mxGeometry x="56.5" y="114.5" width="190" height="20" as="geometry" />
        </mxCell>
        <mxCell id="FrYXlf5MJ7aJV5YNrlwK-4" value="" style="line;strokeWidth=2;html=1;fontSize=14;" vertex="1" parent="FrYXlf5MJ7aJV5YNrlwK-1">
          <mxGeometry x="52.5" y="139.5" width="1060" height="10" as="geometry" />
        </mxCell>
      </root>
    </mxGraphModel>
  </diagram>
  <diagram name="Copy of Page-2" id="n7lrPBi3A8oZ1u8d0607">
    <mxGraphModel dx="1449" dy="675" grid="1" gridSize="10" guides="1" tooltips="1" connect="1" arrows="1" fold="1" page="1" pageScale="1" pageWidth="1169" pageHeight="827" math="0" shadow="0">
      <root>
        <mxCell id="YlU5l3kjZwiAYFKMmy-I-0" />
        <mxCell id="YlU5l3kjZwiAYFKMmy-I-1" parent="YlU5l3kjZwiAYFKMmy-I-0" />
        <mxCell id="YlU5l3kjZwiAYFKMmy-I-2" value="Architecting on AWS" style="text;html=1;resizable=0;points=[];autosize=1;align=left;verticalAlign=top;spacingTop=-4;fontSize=30;fontStyle=1" vertex="1" parent="YlU5l3kjZwiAYFKMmy-I-1">
          <mxGeometry x="56.5" y="64.5" width="310" height="40" as="geometry" />
        </mxCell>
        <mxCell id="YlU5l3kjZwiAYFKMmy-I-3" value="Discovery Health - Day 1" style="text;html=1;resizable=0;points=[];autosize=1;align=left;verticalAlign=top;spacingTop=-4;fontSize=16;" vertex="1" parent="YlU5l3kjZwiAYFKMmy-I-1">
          <mxGeometry x="56.5" y="114.5" width="190" height="20" as="geometry" />
        </mxCell>
        <mxCell id="YlU5l3kjZwiAYFKMmy-I-4" value="" style="line;strokeWidth=2;html=1;fontSize=14;" vertex="1" parent="YlU5l3kjZwiAYFKMmy-I-1">
          <mxGeometry x="52.5" y="139.5" width="1060" height="10" as="geometry" />
        </mxCell>
      </root>
    </mxGraphModel>
  </diagram>
  <diagram name="Copy of Copy of Page-2" id="8nn0xk5oiNojU8NsD8V_">
    <mxGraphModel dx="1449" dy="675" grid="1" gridSize="10" guides="1" tooltips="1" connect="1" arrows="1" fold="1" page="1" pageScale="1" pageWidth="1169" pageHeight="827" math="0" shadow="0">
      <root>
        <mxCell id="FEmT7RUpVSnCnu2o2WaE-0" />
        <mxCell id="FEmT7RUpVSnCnu2o2WaE-1" parent="FEmT7RUpVSnCnu2o2WaE-0" />
        <mxCell id="FEmT7RUpVSnCnu2o2WaE-2" value="Architecting on AWS" style="text;html=1;resizable=0;points=[];autosize=1;align=left;verticalAlign=top;spacingTop=-4;fontSize=30;fontStyle=1" vertex="1" parent="FEmT7RUpVSnCnu2o2WaE-1">
          <mxGeometry x="56.5" y="64.5" width="310" height="40" as="geometry" />
        </mxCell>
        <mxCell id="FEmT7RUpVSnCnu2o2WaE-3" value="Discovery Health - Day 1" style="text;html=1;resizable=0;points=[];autosize=1;align=left;verticalAlign=top;spacingTop=-4;fontSize=16;" vertex="1" parent="FEmT7RUpVSnCnu2o2WaE-1">
          <mxGeometry x="56.5" y="114.5" width="190" height="20" as="geometry" />
        </mxCell>
        <mxCell id="FEmT7RUpVSnCnu2o2WaE-4" value="" style="line;strokeWidth=2;html=1;fontSize=14;" vertex="1" parent="FEmT7RUpVSnCnu2o2WaE-1">
          <mxGeometry x="52.5" y="139.5" width="1060" height="10" as="geometry" />
        </mxCell>
      </root>
    </mxGraphModel>
  </diagram>
  <diagram name="Copy of Copy of Copy of Page-2" id="zRKWpqM42f1T9_ohGU9i">
    <mxGraphModel dx="1449" dy="675" grid="1" gridSize="10" guides="1" tooltips="1" connect="1" arrows="1" fold="1" page="1" pageScale="1" pageWidth="1169" pageHeight="827" math="0" shadow="0">
      <root>
        <mxCell id="bEWTnRuQWtmcFKW9aeX9-0" />
        <mxCell id="bEWTnRuQWtmcFKW9aeX9-1" parent="bEWTnRuQWtmcFKW9aeX9-0" />
        <mxCell id="bEWTnRuQWtmcFKW9aeX9-2" value="Architecting on AWS" style="text;html=1;resizable=0;points=[];autosize=1;align=left;verticalAlign=top;spacingTop=-4;fontSize=30;fontStyle=1" vertex="1" parent="bEWTnRuQWtmcFKW9aeX9-1">
          <mxGeometry x="56.5" y="64.5" width="310" height="40" as="geometry" />
        </mxCell>
        <mxCell id="bEWTnRuQWtmcFKW9aeX9-3" value="Discovery Health - Day 1" style="text;html=1;resizable=0;points=[];autosize=1;align=left;verticalAlign=top;spacingTop=-4;fontSize=16;" vertex="1" parent="bEWTnRuQWtmcFKW9aeX9-1">
          <mxGeometry x="56.5" y="114.5" width="190" height="20" as="geometry" />
        </mxCell>
        <mxCell id="bEWTnRuQWtmcFKW9aeX9-4" value="" style="line;strokeWidth=2;html=1;fontSize=14;" vertex="1" parent="bEWTnRuQWtmcFKW9aeX9-1">
          <mxGeometry x="52.5" y="139.5" width="1060" height="10" as="geometry" />
        </mxCell>
      </root>
    </mxGraphModel>
  </diagram>
  <diagram name="Copy of Copy of Copy of Copy of Page-2" id="-KUXs9YTCSBOoTRGsBYj">
    <mxGraphModel dx="1449" dy="675" grid="1" gridSize="10" guides="1" tooltips="1" connect="1" arrows="1" fold="1" page="1" pageScale="1" pageWidth="1169" pageHeight="827" math="0" shadow="0">
      <root>
        <mxCell id="GZ2XJZxd7CLWVEvUJ7k2-0" />
        <mxCell id="GZ2XJZxd7CLWVEvUJ7k2-1" parent="GZ2XJZxd7CLWVEvUJ7k2-0" />
        <mxCell id="GZ2XJZxd7CLWVEvUJ7k2-2" value="Architecting on AWS" style="text;html=1;resizable=0;points=[];autosize=1;align=left;verticalAlign=top;spacingTop=-4;fontSize=30;fontStyle=1" vertex="1" parent="GZ2XJZxd7CLWVEvUJ7k2-1">
          <mxGeometry x="56.5" y="64.5" width="310" height="40" as="geometry" />
        </mxCell>
        <mxCell id="GZ2XJZxd7CLWVEvUJ7k2-3" value="Discovery Health - Day 1" style="text;html=1;resizable=0;points=[];autosize=1;align=left;verticalAlign=top;spacingTop=-4;fontSize=16;" vertex="1" parent="GZ2XJZxd7CLWVEvUJ7k2-1">
          <mxGeometry x="56.5" y="114.5" width="190" height="20" as="geometry" />
        </mxCell>
        <mxCell id="GZ2XJZxd7CLWVEvUJ7k2-4" value="" style="line;strokeWidth=2;html=1;fontSize=14;" vertex="1" parent="GZ2XJZxd7CLWVEvUJ7k2-1">
          <mxGeometry x="52.5" y="139.5" width="1060" height="10" as="geometry" />
        </mxCell>
      </root>
    </mxGraphModel>
  </diagram>
</mxfile>
